<?xml version="1.0" encoding="UTF-8" standalone="no"?>
<!-- Created with Inkscape (http://www.inkscape.org/) -->

<svg
   width="32"
   height="32"
   viewBox="0 0 32 32"
   version="1.1"
   id="svg1"
   inkscape:version="1.3 (0e150ed6c4, 2023-07-21)"
   sodipodi:docname="closeBlack.svg"
   xmlns:inkscape="http://www.inkscape.org/namespaces/inkscape"
   xmlns:sodipodi="http://sodipodi.sourceforge.net/DTD/sodipodi-0.dtd"
   xmlns="http://www.w3.org/2000/svg"
   xmlns:svg="http://www.w3.org/2000/svg">
  <sodipodi:namedview
     id="namedview1"
     pagecolor="#ffffff"
     bordercolor="#000000"
     borderopacity="0.25"
     inkscape:showpageshadow="2"
     inkscape:pageopacity="0.0"
     inkscape:pagecheckerboard="true"
     inkscape:deskcolor="#d1d1d1"
     inkscape:document-units="px"
     inkscape:zoom="11.784928"
     inkscape:cx="16.07986"
     inkscape:cy="9.3763829"
     inkscape:window-width="1920"
     inkscape:window-height="1121"
     inkscape:window-x="-9"
     inkscape:window-y="-9"
     inkscape:window-maximized="1"
     inkscape:current-layer="layer1" />
  <defs
     id="defs1" />
  <g
     inkscape:label="Ebene 1"
     inkscape:groupmode="layer"
     id="layer1">
    <rect
       style="fill:#333333;fill-opacity:1;stroke:#333333;stroke-width:0.74484;stroke-opacity:0"
       id="rect2"
       width="1.8414215"
       height="43.350712"
       x="-0.77857226"
       y="0.9431296"
       ry="8.6977568"
       rx="0"
       transform="matrix(0.72012489,-0.69384447,0.70535077,0.70885845,0,0)"
       inkscape:transform-center-x="-0.86802963"
       inkscape:transform-center-y="0.4099949" />
    <rect
       style="fill:#333333;fill-opacity:1;stroke:#333333;stroke-width:0.752099;stroke-opacity:0"
       id="rect1-2"
       width="1.8806357"
       height="43.278618"
       x="21.990124"
       y="-24.909546"
       ry="8.6832895"
       rx="0"
       transform="matrix(0.60099329,0.79925407,-0.71224124,0.70193476,0,0)"
       inkscape:transform-center-x="0.33769612"
       inkscape:transform-center-y="0.54169949" />
    <path
       style="fill:#333333;fill-opacity:1;stroke:#333333;stroke-width:0.246774;stroke-opacity:0"
       d="m 1.2687187,30.026255 c 0,-0.03967 0.6759255,-0.907577 1.0843412,-1.39232 0.8910593,-1.05759 2.1623669,-2.430582 3.3806541,-3.651065 0.4855172,-0.486389 2.7305049,-2.704914 4.988863,-4.930049 2.258357,-2.225138 4.105232,-4.05337 4.104165,-4.062737 -0.0011,-0.0094 -1.878311,-1.900022 -4.171654,-4.201459 C 6.327157,7.4454224 4.9008563,5.994213 4.1219168,5.1413633 2.367489,3.2204652 1.1796819,1.7183508 0.85086655,1.0047573 0.74424036,0.77335386 0.72201116,0.66408069 0.76834608,0.59906753 1.0277252,0.23512321 3.4529657,2.122445 6.4663198,5.0332301 6.9632787,5.5132751 7.113534,5.6637407 12.099653,10.674455 l 4.027851,4.047723 0.08402,-0.08238 c 0.04622,-0.04531 1.934374,-1.90444 4.195906,-4.131402 4.871857,-4.7973824 4.859908,-4.7856403 5.243801,-5.1533525 2.50559,-2.3999776 4.785956,-4.2418428 5.578156,-4.50550687 0.246698,-0.0821107 0.329289,-0.0327718 0.291761,0.17428977 -0.104392,0.5759918 -1.589234,2.4541336 -3.698806,4.6785376 -1.02286,1.0785395 -1.474468,1.5292644 -6.058966,6.047137 -2.37972,2.345136 -4.323623,4.272582 -4.319784,4.283213 0.0038,0.01065 1.862525,1.882941 4.130412,4.160688 5.681088,5.705793 6.405848,6.458104 7.797968,8.094421 0.569877,0.669839 1.372909,1.689496 1.372909,1.743262 0,0.0074 -0.342603,0.01361 -0.761341,0.01361 h -0.761337 l -0.295506,-0.243649 c -0.80353,-0.662517 -1.84946,-1.599102 -2.836556,-2.540015 -0.670121,-0.638767 -1.736865,-1.70304 -5.749842,-5.736527 L 16.13819,17.30092 16.032064,17.401669 c -0.05836,0.05541 -2.039629,2.005762 -4.402806,4.334113 -2.363175,2.32835 -4.4578072,4.390134 -4.6547392,4.581741 -1.3413182,1.305062 -2.761742,2.580808 -3.8532549,3.460778 L 2.7908336,30.044692 H 2.0297738 c -0.4185835,0 -0.7610599,-0.0083 -0.7610599,-0.01842 z"
       id="path1" />
    <path
       style="fill:#333333;fill-opacity:1;stroke:#333333;stroke-width:0.246774;stroke-opacity:0"
       d="m 1.2687187,30.025715 c 0,-0.02414 0.5023742,-0.686472 0.7473351,-0.985291 0.6274066,-0.765359 1.1738006,-1.385587 2.1032319,-2.387438 0.917703,-0.989205 1.342472,-1.413965 6.4029063,-6.402766 l 4.311415,-4.250384 -0.389395,-0.397272 C 14.230044,15.384064 12.620279,13.764531 10.866955,12.003603 5.3287782,6.4414079 4.760226,5.8595439 3.5886314,4.5548635 1.8055207,2.5692038 0.64667587,0.96771117 0.74973886,0.63159111 0.85724697,0.2809912 2.1954283,1.1713459 4.1751648,2.9106803 c 0.8491072,0.7460005 2.107709,1.9254275 2.891766,2.7098565 1.0706519,1.0711591 3.2385602,3.2466425 4.6085402,4.6246412 0.845547,0.850497 1.211204,1.218211 1.594258,1.603226 0.215888,0.216992 0.579853,0.58283 0.808813,0.812973 0.228958,0.230144 0.592939,0.595982 0.808844,0.812975 0.215904,0.216993 0.582391,0.586784 0.814414,0.821757 l 0.421861,0.427225 0.132151,-0.127947 c 0.130343,-0.126199 4.00803,-3.945383 6.819618,-6.7167305 2.311075,-2.2779992 2.73697,-2.6905685 3.58068,-3.4686392 2.411878,-2.2242385 4.384693,-3.70484726 4.794589,-3.59836062 0.16529,0.0429365 0.065,0.37499402 -0.269576,0.89257122 -0.674782,1.0438527 -2.059458,2.6636667 -3.947501,4.6178408 -0.374805,0.3879327 -2.31351,2.3143132 -4.308235,4.2808443 -1.994722,1.966531 -3.637971,3.586564 -3.651663,3.600073 -1.370987,1.352734 -1.834849,1.816726 -1.829619,1.83013 0.0035,0.0092 1.305877,1.321552 2.894033,2.916502 1.588155,1.594948 3.059078,3.073888 3.268713,3.286531 0.209637,0.212639 0.906115,0.914618 1.547731,1.559947 2.305081,2.318433 3.668386,3.792692 4.788044,5.177735 0.366002,0.452749 0.801586,1.024615 0.801999,1.052921 1.47e-4,0.0098 -0.343395,0.01793 -0.763423,0.01793 H 29.217517 L 28.75246,29.656125 c -1.194815,-0.998266 -2.695267,-2.389299 -4.106089,-3.806651 -0.17152,-0.172315 -1.361772,-1.366976 -2.645002,-2.654805 -1.283227,-1.287826 -2.515045,-2.524934 -2.73737,-2.749128 -0.222322,-0.224192 -0.580957,-0.585337 -0.796963,-0.802542 -0.21601,-0.217208 -0.564263,-0.568031 -0.773899,-0.779607 -0.209637,-0.211578 -0.645965,-0.64978 -0.96962,-0.973787 l -0.588462,-0.5891 -0.104558,0.103732 c -0.05749,0.05706 -1.081699,1.065528 -2.275992,2.241055 -4.5632445,4.491533 -5.0423779,4.963402 -5.2669029,5.187052 -2.2302327,2.221554 -3.9298188,3.788037 -5.3633622,4.943335 L 2.7904563,30.044677 H 2.0295851 c -0.4184794,0 -0.7608712,-0.0085 -0.7608712,-0.01896 z"
       id="path2" />
  </g>
</svg>
