<?xml version="1.0" encoding="UTF-8" standalone="no"?>
<!-- Created with Inkscape (http://www.inkscape.org/) -->

<svg
   width="16"
   height="16"
   viewBox="0 0 16 16"
   version="1.1"
   id="svg1"
   inkscape:version="1.3 (0e150ed6c4, 2023-07-21)"
   sodipodi:docname="github-mark-kleiner.svg"
   xmlns:inkscape="http://www.inkscape.org/namespaces/inkscape"
   xmlns:sodipodi="http://sodipodi.sourceforge.net/DTD/sodipodi-0.dtd"
   xmlns="http://www.w3.org/2000/svg"
   xmlns:svg="http://www.w3.org/2000/svg">
  <sodipodi:namedview
     id="namedview1"
     pagecolor="#ffffff"
     bordercolor="#000000"
     borderopacity="0.25"
     inkscape:showpageshadow="2"
     inkscape:pageopacity="0.0"
     inkscape:pagecheckerboard="true"
     inkscape:deskcolor="#d1d1d1"
     inkscape:document-units="px"
     inkscape:zoom="54.0625"
     inkscape:cx="8"
     inkscape:cy="8"
     inkscape:window-width="1920"
     inkscape:window-height="1121"
     inkscape:window-x="-9"
     inkscape:window-y="-9"
     inkscape:window-maximized="1"
     inkscape:current-layer="layer1" />
  <defs
     id="defs1" />
  <g
     inkscape:label="Ebene 1"
     inkscape:groupmode="layer"
     id="layer1">
    <path
       fill-rule="evenodd"
       clip-rule="evenodd"
       d="m 8.0421638,0.64739879 c -4.4068344,0 -7.96933143,3.31491401 -7.96933143,7.41591561 0,3.2781496 2.28261513,6.0530326 5.44920663,7.0351506 0.3959051,0.07384 0.5409241,-0.159567 0.5409241,-0.3559 0,-0.171923 -0.013049,-0.761225 -0.013049,-1.375237 C 3.8330399,13.809417 3.3713945,12.4833 3.3713945,12.4833 3.0151284,11.623833 2.4872542,11.402941 2.4872542,11.402941 c -0.7255824,-0.454295 0.052856,-0.454295 0.052856,-0.454295 0.8048607,0.04912 1.2271922,0.761225 1.2271922,0.761225 0.7123699,1.129481 1.8602834,0.810344 2.3220913,0.613861 0.065905,-0.478855 0.2771508,-0.810346 0.5014476,-0.994474 -1.7681158,-0.171924 -3.628399,-0.810346 -3.628399,-3.6589115 0,-0.8103459 0.3164637,-1.473329 0.8179115,-1.988949 -0.079115,-0.1841282 -0.3562661,-0.9455038 0.079277,-1.9645389 0,0 0.6728923,-0.1964838 2.1901226,0.7612251 A 7.6620028,7.0773422 0 0 1 8.0421665,4.2324788 c 0.6728922,0 1.3588359,0.086039 1.9922515,0.2456049 1.517393,-0.9577089 2.190286,-0.7612251 2.190286,-0.7612251 0.435544,1.0190351 0.158231,1.7804107 0.07911,1.9645389 0.514662,0.51562 0.818074,1.1786031 0.818074,1.988949 0,2.8485655 -1.860282,3.4746335 -3.6416123,3.6589115 0.2903636,0.233249 0.5409243,0.675188 0.5409243,1.375087 0,0.994474 -0.01305,1.792614 -0.01305,2.038069 0,0.196484 0.145181,0.429885 0.540923,0.356202 3.166592,-0.982419 5.449206,-3.757152 5.449206,-7.0353016 0.01305,-4.1010016 -3.562497,-7.41591561 -7.9561177,-7.41591561 z"
       fill="#24292f"
       id="path1"
       style="stroke-width:0.156779;fill:#000000" />
  </g>
</svg>
